# xmcd
#
# Track frame offsets: 
#        150
#        16495
#        34889
#        50249
#        65120
#        78997
#        91659
#        110816
#        131717
#        147801
#        167573
#        182630
#        197041
#
# Disc length: 2907 seconds
#
# Revision: 0
# Processed by: cddbd v1.5.2PL0 Copyright (c) Steve Scherf et al.
# Submitted via: ExactAudioCopy v0.99pb4
#
DISCID=b90b590d
DTITLE=Various Artist - Country Nights Disc 2
DYEAR=1990
DGENRE=Corporate Country
TTITLE0=Randy Travis - Deeper Than the Holler
TTITLE1=Baillie and The Boys - (Wish I Had a) Heart of Stone
TTITLE2=Merle Haggard - Twinkle, Twinkle Lucky Star
TTITLE3=Leon Everette - My Lady Loves Me (Just as I Am)
TTITLE4=Dolly Parton - I Will Always Love You
TTITLE5=Michael Martin Murphey - What's Forever For
TTITLE6=Ronnie Milsap - Lost in the Fifties Tonight (In the Still of t
TTITLE6=he Night)
TTITLE7=K.T. Oslin - Hold Me
TTITLE8=Conway Twitty - I Want to Know You Before We Make Love
TTITLE9=Rodney Crowell - After All This Time
TTITLE10=Lee Greenwood - I Don't Mind the Thorns (Kf You're the Rose)
TTITLE11=The Forester Sister - I Fell in Love Again Last Night
TTITLE12=Gary Morris - The Wind Beneath My Wings
EXTD=
EXTT0=
EXTT1=
EXTT2=
EXTT3=
EXTT4=
EXTT5=
EXTT6=
EXTT7=
EXTT8=
EXTT9=
EXTT10=
EXTT11=
EXTT12=
PLAYORDER=
